<?xml version="1.0" standalone="no"?>
<!DOCTYPE svg PUBLIC "-//W3C//DTD SVG 20010904//EN"
 "http://www.w3.org/TR/2001/REC-SVG-20010904/DTD/svg10.dtd">
<svg version="1.0" xmlns="http://www.w3.org/2000/svg"
 width="260.000000pt" height="260.000000pt" viewBox="0 0 260.000000 260.000000"
 preserveAspectRatio="xMidYMid meet">
<metadata>
Created by potrace 1.11, written by Peter Selinger 2001-2013
</metadata>
<g transform="translate(0.000000,260.000000) scale(0.100000,-0.100000)"
fill="#000000" stroke="none">
<path d="M825 1729 c-43 -68 -116 -180 -161 -249 -44 -69 -121 -188 -169 -265
-140 -223 -225 -356 -267 -418 -22 -33 -37 -61 -35 -64 7 -6 235 -6 246 1 7 5
60 86 106 164 6 9 18 28 27 42 l17 26 165 -1 c95 0 169 -5 174 -10 5 -6 22
-58 38 -117 l28 -108 38 -1 c21 0 63 0 93 0 30 0 68 0 84 0 l29 1 -14 48 c-8
26 -50 169 -93 317 -90 307 -173 588 -205 689 l-22 69 -79 -124z m23 -587
c-32 -2 -85 -2 -118 0 l-59 3 82 142 82 143 36 -143 35 -142 -58 -3z"/>
<path d="M1512 1716 c-7 -39 -14 -82 -16 -96 -3 -14 -7 -41 -10 -60 -3 -19 -8
-46 -11 -60 -3 -14 -32 -187 -65 -384 -34 -198 -63 -363 -66 -367 -10 -16 33
-25 119 -23 48 0 92 5 96 10 5 5 19 70 31 144 12 74 24 142 25 150 1 8 8 48
15 88 l13 72 234 0 234 0 -6 -42 c-3 -24 -8 -50 -10 -58 -2 -8 -7 -40 -10 -70
-4 -30 -8 -57 -10 -60 -2 -3 -6 -24 -9 -46 -4 -22 -8 -51 -11 -64 -3 -13 -7
-42 -11 -64 -3 -22 -8 -44 -10 -48 -3 -5 1 -8 8 -9 13 -1 136 0 189 1 14 0 26
6 26 13 0 15 10 82 18 117 6 29 22 119 30 170 3 19 14 82 25 140 27 144 100
586 100 602 0 11 -22 14 -105 13 -57 0 -106 -3 -109 -6 -3 -2 -7 -19 -10 -37
-8 -45 -15 -87 -21 -124 -3 -18 -8 -46 -11 -61 -3 -16 -7 -38 -9 -50 -1 -12
-6 -43 -10 -69 l-7 -48 -235 0 -235 0 6 38 c3 20 13 78 21 127 27 155 29 169
29 200 l1 29 -106 1 -106 1 -11 -70z"/>
</g>
</svg>
